<?xml version="1.0" encoding="UTF-8"?>
<svg width="706px" height="361px" viewBox="0 0 706 361" version="1.1" xmlns="http://www.w3.org/2000/svg" xmlns:xlink="http://www.w3.org/1999/xlink">
    <!-- Generator: Sketch 52.6 (67491) - http://www.bohemiancoding.com/sketch -->
    <title>Artboard</title>
    <desc>Created with Sketch.</desc>
    <defs>
        <linearGradient x1="50%" y1="0%" x2="50%" y2="100%" id="linearGradient-1">
            <stop stop-color="#565DFF" offset="0%"></stop>
            <stop stop-color="#5F64FF" stop-opacity="0.696601" offset="79.6586%"></stop>
            <stop stop-color="#7E84FF" stop-opacity="0" offset="93.7496%"></stop>
        </linearGradient>
        <linearGradient x1="50%" y1="0%" x2="50%" y2="100%" id="linearGradient-2">
            <stop stop-color="#A7B9EA" offset="0%"></stop>
            <stop stop-color="#8AA6F3" stop-opacity="0.927083" offset="7.29167%"></stop>
            <stop stop-color="#A7B9EA" stop-opacity="0" offset="100%"></stop>
        </linearGradient>
        <linearGradient x1="50%" y1="0%" x2="57.5504523%" y2="100%" id="linearGradient-3">
            <stop stop-color="#A4B6EA" offset="0%"></stop>
            <stop stop-color="#A4B6EA" stop-opacity="0.812024" offset="77.9703%"></stop>
            <stop stop-color="#A4B6EA" stop-opacity="0" offset="95.5075%"></stop>
        </linearGradient>
    </defs>
    <g id="Artboard" stroke="none" stroke-width="1" fill="none" fill-rule="evenodd">
        <g id="Group-101" transform="translate(251.000000, 26.000000)">
            <g id="Group-100">
                <path d="M134.831,31.5767 C134.828,37.6254 130.154,42.5278 124.387,42.5319 L78.307,42.5319 C70.164,42.5319 63.562,35.6074 63.562,27.0658 C63.562,18.5241 70.164,11.5997 78.307,11.5997 C78.688,11.5997 79.057,11.6125 79.425,11.6512 C81.955,4.64563 88.349,0.00859951 95.491,1.19472e-05 C102.634,-0.00857563 109.038,4.61306 111.583,11.6125 C111.755,11.5997 111.927,11.5997 112.099,11.5997 C117.567,11.599 122.441,15.2141 124.264,20.6215 L124.387,20.6215 C130.154,20.6256 134.828,25.528 134.831,31.5767 Z" id="Path" fill="#3036D2"></path>
                <ellipse id="Oval" fill="#D7D8E8" cx="102.071" cy="218.982" rx="30.462" ry="27.0135"></ellipse>
                <path d="M162.925,153.841 L163.089,162.568 C162.102,162.568 161.279,162.239 160.456,161.745 C144.819,151.371 125.232,145.114 103.835,145.114 C101.036,145.114 98.074,145.279 95.276,145.443 L95.111,136.716 C97.909,136.552 100.707,136.387 103.67,136.387 C125.068,136.552 144.819,142.644 160.291,153.018 C161.114,153.676 161.937,153.841 162.925,153.841 Z" id="Path" fill="#1B1F77"></path>
                <path d="M95.111,136.715 L95.276,145.442 C88.033,145.936 81.12,147.254 74.372,149.065 L74.207,140.338 C80.956,138.527 87.869,137.374 95.111,136.715 Z" id="Path" fill="#1C207C"></path>
                <path d="M74.207,140.339 L74.372,149.066 C68.117,150.713 62.027,153.018 56.431,155.817 L56.266,147.09 C62.027,144.291 67.953,141.986 74.207,140.339 Z" id="Path" fill="#1D2180"></path>
                <path d="M56.431,147.09 L56.595,155.817 C53.139,157.464 49.847,159.439 46.72,161.415 C46.555,161.58 46.39,161.58 46.226,161.745 L46.061,153.018 C46.226,153.018 46.39,152.853 46.555,152.688 C49.518,150.548 52.974,148.737 56.431,147.09 Z" id="Path" fill="#1E2285"></path>
                <path d="M46.061,152.853 L46.226,161.58 C45.897,161.745 45.732,161.745 45.403,161.909 L45.238,153.182 C45.403,153.182 45.732,153.018 46.061,152.853 Z" id="Path" fill="#1D2180"></path>
                <path d="M45.238,153.182 L45.403,161.909 C45.074,162.074 44.744,162.074 44.415,162.074 L44.251,153.347 C44.58,153.347 44.909,153.347 45.238,153.182 Z" id="Path" fill="#1C207C"></path>
                <path d="M44.251,153.347 L44.415,162.074 C44.251,162.074 44.086,162.074 44.086,162.074 C42.769,162.074 41.453,161.58 40.63,160.592 C40.136,159.933 39.807,159.275 39.807,158.452 L39.642,149.725 C39.642,150.383 39.971,151.206 40.465,151.865 C41.288,152.853 42.605,153.347 43.921,153.347 C43.921,153.347 44.086,153.347 44.251,153.347 Z" id="Path" fill="#1B1F77"></path>
                <path d="M167.204,150.219 L167.369,158.946 C167.369,159.769 167.04,160.592 166.381,161.251 C166.217,161.415 166.052,161.58 165.888,161.58 L165.723,152.853 C165.888,152.688 166.052,152.524 166.217,152.524 C166.875,151.865 167.204,151.042 167.204,150.219 Z" id="Path" fill="#1F2389"></path>
                <path d="M165.888,152.853 L166.052,161.58 C165.723,161.745 165.558,161.909 165.229,162.074 L165.065,153.347 C165.394,153.182 165.558,153.018 165.888,152.853 Z" id="Path" fill="#1E2285"></path>
                <path d="M165.065,153.347 L165.229,162.074 C164.9,162.239 164.735,162.239 164.406,162.403 L164.242,153.676 C164.571,153.676 164.735,153.512 165.065,153.347 Z" id="Path" fill="#1D2180"></path>
                <path d="M164.242,153.676 L164.406,162.403 C164.077,162.568 163.748,162.568 163.419,162.568 L163.254,153.841 C163.583,153.841 163.912,153.841 164.242,153.676 Z" id="Path" fill="#1C207C"></path>
                <path d="M163.254,153.841 L163.419,162.568 C163.254,162.568 163.09,162.568 163.09,162.568 L162.925,153.841 C162.925,153.841 163.09,153.841 163.254,153.841 Z" id="Path" fill="#1B1F77"></path>
                <path d="M162.925,153.841 C161.937,153.841 161.114,153.512 160.291,153.018 C144.655,142.644 125.068,136.387 103.67,136.387 C82.273,136.222 62.356,142.315 46.555,152.524 C45.732,153.018 44.909,153.347 43.922,153.182 C42.605,153.182 41.288,152.688 40.465,151.7 C38.984,150.054 39.477,147.749 41.288,146.596 C58.571,135.399 80.297,128.813 103.67,128.977 C127.043,129.142 148.605,135.893 165.558,147.09 C167.369,148.243 167.698,150.548 166.217,152.194 C165.394,153.347 164.242,153.841 162.925,153.841 Z" id="Path" fill="#3036D2"></path>
                <path d="M195.515,212.789 L195.68,221.516 C195.351,205.05 188.931,189.737 178.068,177.223 C177.574,176.564 177.245,175.905 177.245,175.082 L177.08,166.355 C177.08,167.014 177.41,167.837 177.903,168.496 C188.602,181.01 195.021,196.323 195.515,212.789 Z" id="Path" fill="#1B1F77"></path>
                <path d="M184.816,164.215 C197.161,178.54 204.403,196.159 204.074,215.424 C203.745,240.452 190.577,262.846 170.167,278.489 C155.353,289.85 136.425,297.424 115.686,299.894 C115.521,299.894 115.356,299.894 115.027,299.894 C112.888,299.894 111.077,298.577 110.748,296.766 C110.419,294.79 112.065,292.979 114.534,292.649 C133.627,290.509 150.745,283.428 164.406,273.055 C183.17,258.729 195.021,238.312 195.515,215.424 C195.844,197.97 189.26,181.669 177.903,168.66 C176.586,167.014 176.916,164.709 178.891,163.556 C179.714,163.062 180.537,162.897 181.524,162.897 C182.677,162.733 183.993,163.227 184.816,164.215 Z" id="Path" fill="#3036D2"></path>
                <path d="M204.074,212.625 L204.239,221.352 C204.239,222.34 204.239,223.163 204.239,224.151 C203.909,248.356 191.729,270.091 172.471,285.569 L172.307,276.842 C191.565,261.364 203.745,239.629 204.074,215.424 C204.074,214.436 204.074,213.448 204.074,212.625 Z" id="Path" fill="#1F2389"></path>
                <path d="M172.307,276.677 L172.471,285.404 C171.813,286.063 170.99,286.557 170.332,287.051 C165.065,291.167 159.139,294.625 152.884,297.754 L152.72,289.027 C158.975,286.063 164.735,282.44 170.167,278.324 C170.825,277.83 171.648,277.336 172.307,276.677 Z" id="Path" fill="#1E2285"></path>
                <path d="M152.72,289.027 L152.885,297.754 C146.794,300.718 140.211,303.188 133.298,305.163 L133.133,296.436 C140.046,294.625 146.63,292.155 152.72,289.027 Z" id="Path" fill="#1D2180"></path>
                <path d="M133.297,296.436 L133.462,305.163 C127.866,306.645 121.94,307.798 115.85,308.621 L115.124,308.621 L114.907,299.894 L115.686,299.894 C121.611,299.071 127.537,297.918 133.297,296.436 Z" id="Path" fill="#1C207C"></path>
                <path d="M115.356,299.894 L115.521,308.621 C115.356,308.621 115.192,308.621 115.192,308.621 C113.052,308.621 111.242,307.304 110.912,305.493 C110.912,305.328 110.912,305.163 110.912,305.163 L110.748,296.436 C110.748,296.601 110.748,296.766 110.748,296.766 C111.077,298.577 112.888,299.894 115.027,299.894 C115.192,299.894 115.356,299.894 115.356,299.894 Z" id="Path" fill="#1B1F77"></path>
                <path d="M29.437,165.226 L29.437,174.259 C29.437,175.082 29.108,175.905 28.614,176.564 C16.928,189.572 9.85,205.709 9.685,223.163 C9.685,223.986 9.685,224.809 9.685,225.633 L9.164,217.345 C9.164,216.522 9.164,214.857 9.164,214.034 C9.493,196.58 16.02,180.684 27.707,167.676 C28.201,167.017 29.437,166.049 29.437,165.226 Z" id="Path" fill="#1F2389"></path>
                <path d="M88.033,292.485 C90.338,292.814 91.984,294.625 91.655,296.601 C91.325,298.412 89.515,299.73 87.375,299.73 C87.21,299.73 87.046,299.73 86.717,299.73 C65.977,297.095 47.378,289.356 32.894,277.83 C12.813,262.023 0.468,239.464 0.797,214.436 C1.126,195.335 8.862,177.717 21.536,163.391 C22.359,162.403 23.676,161.909 24.993,161.909 C25.816,161.909 26.803,162.074 27.462,162.568 C29.272,163.721 29.766,166.026 28.285,167.672 C16.598,180.681 9.521,196.817 9.356,214.271 C9.027,237.159 20.384,257.741 38.654,272.232 C51.987,282.934 69.105,290.179 88.033,292.485 Z" id="Path" fill="#3036D2"></path>
                <path d="M91.655,295.943 L91.819,304.669 C91.819,304.834 91.819,305.163 91.819,305.328 C91.655,306.151 91.161,306.975 90.502,307.469 L90.338,298.742 C90.996,298.248 91.49,297.424 91.655,296.601 C91.655,296.436 91.655,296.272 91.655,295.943 Z" id="Path" fill="#1F2389"></path>
                <path d="M90.338,298.742 L90.502,307.469 C90.173,307.633 90.009,307.798 89.68,307.963 L89.515,299.236 C89.844,299.071 90.009,298.906 90.338,298.742 Z" id="Path" fill="#1E2285"></path>
                <path d="M89.515,299.236 L89.679,307.963 C89.35,308.127 89.186,308.127 88.856,308.292 L88.692,299.565 C89.021,299.565 89.186,299.4 89.515,299.236 Z" id="Path" fill="#1D2180"></path>
                <path d="M88.692,299.565 L88.857,308.292 C88.527,308.457 88.198,308.457 87.869,308.457 L87.704,299.73 C88.034,299.73 88.363,299.73 88.692,299.565 Z" id="Path" fill="#1C207C"></path>
                <path d="M87.704,299.73 L87.869,308.457 C87.704,308.457 87.54,308.457 87.54,308.457 C87.375,308.457 87.21,308.457 86.881,308.457 C66.142,305.822 47.543,298.083 33.058,286.557 C13.8,271.408 1.62,249.838 0.962,225.962 L0.797,217.235 C1.291,241.111 13.471,262.681 32.894,277.83 C47.378,289.356 65.978,297.095 86.717,299.73 C86.881,299.73 87.046,299.73 87.375,299.73 C87.54,299.73 87.54,299.73 87.704,299.73 Z" id="Path" fill="#1B1F77"></path>
                <path d="M149.922,213.283 L150.086,222.01 C149.757,210.978 144.161,200.934 135.108,193.853 C128.36,188.584 119.636,184.962 109.925,183.644 C108.279,183.48 107.127,182.327 107.127,181.01 L106.962,172.283 C106.962,173.6 108.114,174.753 109.76,174.917 C119.471,176.07 128.195,179.693 134.943,185.126 C143.996,192.207 149.757,202.086 149.922,213.283 Z" id="Path" fill="#1B1F77"></path>
                <path d="M156.506,213.118 L156.67,221.845 C156.67,222.339 156.67,222.833 156.67,223.327 C156.506,233.372 152.391,242.757 145.642,250.332 C145.478,250.496 145.478,250.496 145.313,250.661 L145.149,241.934 C145.313,241.769 145.313,241.769 145.478,241.605 C152.226,234.03 156.341,224.809 156.506,214.6 C156.506,214.106 156.506,213.612 156.506,213.118 Z" id="Path" fill="#1F2389"></path>
                <path d="M146.25,240.524 L145.587,250.457 C145.423,250.622 144.263,251.782 141.614,251.12 L139.627,240.524 C139.956,240.524 146.085,240.688 146.25,240.524 Z" id="Path" fill="#1E2285"></path>
                <path d="M144.49,242.263 L144.655,250.99 C144.49,251.155 144.326,251.155 143.996,251.155 L143.832,242.428 C143.996,242.428 144.161,242.263 144.49,242.263 Z" id="Path" fill="#1D2180"></path>
                <path d="M143.832,242.428 L143.996,251.155 C143.832,251.155 143.503,251.32 143.338,251.32 L143.173,242.593 C143.338,242.593 143.503,242.428 143.832,242.428 Z" id="Path" fill="#1C207C"></path>
                <path d="M143.009,242.593 L143.173,251.32 C143.009,251.32 143.009,251.32 142.844,251.32 C142.186,251.32 141.527,251.155 140.869,250.826 C140.046,250.332 139.627,249.956 139.627,249.133 L139.627,239.199 C139.627,240.022 139.881,241.605 140.704,242.099 C141.363,242.428 142.021,242.593 142.68,242.593 C142.844,242.593 143.009,242.593 143.009,242.593 Z" id="Path" fill="#1B1F77"></path>
                <path d="M139.388,181.01 C150.086,189.408 156.67,201.263 156.506,214.436 C156.341,224.48 152.226,233.866 145.478,241.44 C144.819,242.099 143.832,242.593 142.844,242.593 C142.186,242.593 141.527,242.428 140.869,242.099 C139.388,241.111 139.223,239.464 140.211,238.311 C146.136,231.725 149.757,223.492 149.922,214.765 C150.086,203.239 144.326,192.701 134.944,185.456 C128.195,180.187 119.471,176.564 109.76,175.247 C107.95,175.082 106.798,173.6 106.962,172.118 C107.291,170.801 108.608,169.813 110.254,169.813 C110.419,169.813 110.583,169.813 110.748,169.813 C121.776,170.801 131.652,174.917 139.388,181.01 Z" id="Path" fill="#3036D2"></path>
                <path d="M99.062,172.118 L99.226,180.845 C99.226,181.669 98.897,182.327 98.239,182.986 L98.074,174.094 C98.732,173.6 99.062,172.942 99.062,172.118 Z" id="Path" fill="#1F2389"></path>
                <path d="M98.074,174.094 L98.239,182.821 C98.074,182.986 97.909,183.15 97.58,183.15 L97.416,174.588 C97.745,174.424 97.909,174.259 98.074,174.094 Z" id="Path" fill="#1E2285"></path>
                <path d="M97.415,174.588 L97.58,183.315 C97.415,183.48 97.251,183.48 96.922,183.48 L96.757,174.753 C97.086,174.753 97.251,174.588 97.415,174.588 Z" id="Path" fill="#1D2180"></path>
                <path d="M96.922,174.753 L97.086,183.48 C96.922,183.48 96.757,183.644 96.592,183.644 C93.794,183.974 90.996,184.468 88.198,185.291 L88.033,176.564 C90.667,175.905 93.465,175.247 96.428,174.917 C96.428,174.917 96.592,174.917 96.922,174.753 Z" id="Path" fill="#1C207C"></path>
                <path d="M88.033,176.564 L88.198,185.291 C84.906,186.114 81.943,187.267 78.981,188.749 L78.816,180.022 C81.614,178.54 84.742,177.387 88.033,176.564 Z" id="Path" fill="#1D2180"></path>
                <path d="M78.816,180.022 L78.981,188.749 C76.183,190.066 73.384,191.713 70.915,193.689 C70.586,194.018 70.092,194.347 69.763,194.512 L69.599,185.785 C69.928,185.456 70.422,185.126 70.751,184.962 C73.22,182.986 75.853,181.339 78.816,180.022 Z" id="Path" fill="#1E2285"></path>
                <path d="M69.599,185.785 L69.763,194.512 C60.875,201.757 55.279,211.801 55.114,222.834 L54.95,214.107 C55.114,202.91 60.71,192.865 69.599,185.785 Z" id="Path" fill="#1F2389"></path>
                <path d="M54.95,214.107 L55.114,222.833 C55.114,223.327 55.114,223.657 55.114,224.151 L54.95,215.424 C54.95,214.93 54.95,214.436 54.95,214.107 Z" id="Path" fill="#1F2389"></path>
                <path d="M54.949,214.107 C54.785,222.998 58.241,231.231 63.838,237.818 C64.825,238.97 64.661,240.781 63.179,241.605 C62.521,241.934 61.863,242.099 61.204,242.099 C60.217,242.099 59.229,241.769 58.571,240.946 C51.987,233.372 48.201,223.986 48.366,213.942 C48.53,200.769 55.443,188.914 66.307,180.681 C74.207,174.753 84.248,170.636 95.276,169.319 C95.44,169.319 95.605,169.319 95.769,169.319 C97.415,169.319 98.732,170.307 98.897,171.789 C99.061,173.271 97.909,174.753 96.099,174.917 C86.387,176.07 77.664,179.528 70.586,184.797 C61.204,192.042 55.114,202.416 54.949,214.107 Z" id="Path" fill="#3036D2"></path>
                <path d="M64.496,239.3 L64.661,248.026 C64.661,248.85 64.332,249.508 63.673,250.167 L63.509,241.44 C64.167,240.946 64.661,240.123 64.496,239.3 Z" id="Path" fill="#1F2389"></path>
                <path d="M63.509,241.44 L63.673,250.167 C63.509,250.167 63.509,250.332 63.344,250.332 C63.179,250.332 63.179,250.496 63.015,250.496 L62.85,241.769 C63.015,241.769 63.015,241.605 63.179,241.605 C63.344,241.605 63.509,241.44 63.509,241.44 Z" id="Path" fill="#1E2285"></path>
                <path d="M62.85,241.769 L63.015,250.496 C62.85,250.661 62.686,250.661 62.356,250.661 L62.192,241.934 C62.521,241.934 62.686,241.934 62.85,241.769 Z" id="Path" fill="#1D2180"></path>
                <path d="M62.806,241.848 L62.521,250.826 C62.356,250.826 61.646,250.826 61.482,250.826 L61.142,242.099 C61.87,242.099 62.477,241.848 62.806,241.848 Z" id="Path" fill="#1C207C"></path>
                <path d="M61.533,242.099 L61.698,250.826 C61.533,250.826 61.533,250.826 61.369,250.826 C60.381,250.826 59.394,250.496 58.735,249.673 C52.481,242.428 48.695,233.701 48.53,224.151 L48.366,215.424 C48.53,224.974 52.316,233.866 58.571,240.946 C59.229,241.605 60.217,242.099 61.204,242.099 C61.369,242.263 61.533,242.263 61.533,242.099 Z" id="Path" fill="#1B1F77"></path>
                <path d="M132.966,245.227 C133.954,245.227 134.942,245.557 135.6,246.38 C136.752,247.532 136.423,249.344 134.942,250.332 C125.724,256.259 114.202,259.717 101.858,259.553 C89.513,259.553 77.991,255.93 68.938,250.002 C67.457,249.014 67.292,247.368 68.444,246.051 C69.103,245.392 70.09,244.898 71.078,244.898 C71.736,244.898 72.395,245.063 73.053,245.557 C80.954,250.826 90.994,253.954 102.022,253.954 C113.05,253.954 123.091,250.99 131.156,245.721 C131.65,245.557 132.308,245.227 132.966,245.227 Z" id="Path" fill="#3036D2"></path>
                <path d="M136.26,248.026 L136.425,256.753 C136.425,257.576 136.096,258.235 135.437,258.894 L135.273,250.167 C135.931,249.508 136.26,248.685 136.26,248.026 Z" id="Path" fill="#1F2389"></path>
                <path d="M135.273,250.002 L135.437,258.729 C135.273,258.729 135.273,258.894 135.108,258.894 C133.298,260.047 131.487,261.035 129.512,262.023 L129.347,253.296 C131.322,252.308 133.133,251.32 134.944,250.167 C135.108,250.167 135.108,250.167 135.273,250.002 Z" id="Path" fill="#1E2285"></path>
                <path d="M129.693,253.106 L129.693,261.716 C125.72,264.365 111.077,267.786 106.798,268.115 L106.633,259.388 C121.084,257.742 125.72,255.093 129.693,253.106 Z" id="Path" fill="#1C207C"></path>
                <path d="M106.798,259.388 L106.962,268.115 C105.316,268.28 103.67,268.28 102.024,268.28 C89.679,268.28 78.158,264.657 69.105,258.729 C68.282,258.235 67.953,257.412 67.788,256.589 L67.624,247.862 C67.624,248.685 68.117,249.508 68.94,250.002 C77.993,255.93 89.35,259.553 101.86,259.553 C103.506,259.553 105.152,259.553 106.798,259.388 Z" id="Path" fill="#1B1F77"></path>
                <path d="M96.898,63.2231 L96.898,242.547 M102.919,63.2231 L102.919,244.846 M109.542,63.2231 L109.542,242.547" id="Shape" stroke="url(#linearGradient-1)" stroke-width="1.22262" stroke-linecap="round"></path>
                <path d="M116.439,63.2231 L116.439,229.902 M122.187,63.2231 L122.187,225.879" id="Shape" stroke="url(#linearGradient-2)" stroke-width="1.22262" stroke-linecap="round"></path>
                <path d="M90.001,63.2231 L90.001,225.304 M84.253,63.2231 L84.253,221.392" id="Shape" stroke="url(#linearGradient-3)" stroke-width="1.22262" stroke-linecap="round"></path>
                <path d="M144.901,50.1884 C144.897,56.365 140.091,61.3712 134.16,61.3753 L86.773,61.3753 C78.398,61.3753 71.609,54.3044 71.609,45.582 C71.609,36.8596 78.398,29.7886 86.773,29.7886 C87.164,29.7886 87.543,29.8018 87.922,29.8413 C90.524,22.6875 97.1,17.9523 104.444,17.9436 C111.789,17.9348 118.375,22.6542 120.993,29.8018 C121.17,29.7886 121.347,29.7886 121.523,29.7886 C127.147,29.7879 132.16,33.4795 134.034,39.0014 L134.16,39.0014 C140.091,39.0056 144.897,44.0117 144.901,50.1884 Z" id="Path" fill="#FFFFFF"></path>
                <path d="M88.94,30.0216 L89.415,30.0711 L89.578,29.6223 C91.902,23.2247 97.766,19.0113 104.293,19.0035 C110.82,18.9957 116.693,23.195 119.031,29.587 L119.189,30.0209 L119.65,29.9866 C119.788,29.9764 119.929,29.9761 120.096,29.9761 C125.024,29.9755 129.439,33.2154 131.093,38.0953 L131.234,38.5103 L131.672,38.5103 L131.789,38.5103 C136.915,38.5139 141.114,42.8535 141.117,48.262 C141.114,53.6705 136.915,58.0101 131.789,58.0137 L87.939,58.0137 C80.551,58.0137 74.519,51.7616 74.519,43.9949 C74.519,36.2282 80.551,29.9761 87.939,29.9761 C88.289,29.9761 88.617,29.9879 88.94,30.0216 Z" id="Path" stroke="#1C207C" stroke-width="1.22262" fill="#E5EAF8"></path>
            </g>
        </g>
    </g>
</svg>