<svg width="107" height="45" viewBox="0 0 107 45" fill="none" xmlns="http://www.w3.org/2000/svg">
  <g filter="url(#filter0_d)">
    <circle cx="22" cy="22" r="20" fill="url(#paint0_linear)"/>
  </g>
  <path d="M64.3201 20C64.3201 16.664 61.6561 14 58.3201 14C54.9841 14 52.3201 16.664 52.3201 20V24.8C52.3201 28.136 54.9841 30.8 58.3201 30.8C61.6561 30.8 64.3201 28.136 64.3201 24.8V20ZM62.4001 24.8C62.4001 27.032 60.5521 28.88 58.3201 28.88C56.0881 28.88 54.2401 27.032 54.2401 24.8V20C54.2401 17.768 56.0881 15.92 58.3201 15.92C60.5521 15.92 62.4001 17.768 62.4001 20V24.8Z" fill="#21269E"/>
  <path d="M69.3685 29.192C70.4485 30.224 71.8405 30.8 73.4485 30.8C76.7845 30.8 79.4485 28.136 79.4485 24.8C79.4485 21.464 76.7845 18.8 73.4485 18.8C71.8405 18.8 70.4485 19.376 69.3685 20.408V19.76C69.3685 19.208 68.9605 18.8 68.4085 18.8C67.8565 18.8 67.4485 19.208 67.4485 19.76V24.8V35.84C67.4485 36.392 67.8565 36.8 68.4085 36.8C68.9605 36.8 69.3685 36.392 69.3685 35.84V29.192ZM73.4485 28.88C71.2165 28.88 69.3685 27.032 69.3685 24.8C69.3685 22.568 71.2165 20.72 73.4485 20.72C75.6805 20.72 77.5285 22.568 77.5285 24.8C77.5285 27.032 75.6805 28.88 73.4485 28.88Z" fill="#21269E"/>
  <path d="M84.4969 20.72H87.1369C87.6889 20.72 88.0969 20.312 88.0969 19.76C88.0969 19.208 87.6889 18.8 87.1369 18.8H84.4969V14.96C84.4969 14.408 84.0889 14 83.5369 14C82.9849 14 82.5769 14.408 82.5769 14.96V27.2C82.5769 29.192 84.1849 30.8 86.1769 30.8C87.1609 30.8 88.0729 30.392 88.7209 29.744C89.1049 29.36 89.1049 28.76 88.7209 28.376C88.3369 28.016 87.7369 28.016 87.3769 28.376C87.0409 28.712 86.6329 28.88 86.1769 28.88C85.2409 28.88 84.4969 28.136 84.4969 27.2V20.72Z" fill="#21269E"/>
  <path d="M93.8185 15.08C93.8185 14.48 93.3385 14 92.7385 14C92.1385 14 91.6585 14.48 91.6585 15.08C91.6585 15.68 92.1385 16.16 92.7385 16.16C93.3385 16.16 93.8185 15.68 93.8185 15.08ZM91.7785 29.84C91.7785 30.392 92.1865 30.8 92.7385 30.8C93.2905 30.8 93.6985 30.392 93.6985 29.84V19.76C93.6985 19.208 93.2905 18.8 92.7385 18.8C92.1865 18.8 91.7785 19.208 91.7785 19.76V29.84Z" fill="#21269E"/>
  <path d="M106.722 29.048C107.082 28.664 107.082 28.064 106.722 27.68C106.338 27.32 105.738 27.32 105.354 27.68C104.61 28.424 103.602 28.88 102.474 28.88C100.242 28.88 98.3944 27.032 98.3944 24.8C98.3944 22.568 100.242 20.72 102.474 20.72C103.602 20.72 104.61 21.176 105.354 21.92C105.738 22.28 106.338 22.28 106.722 21.92C107.082 21.536 107.082 20.936 106.722 20.552C105.594 19.472 104.13 18.8 102.474 18.8C99.1384 18.8 96.4744 21.464 96.4744 24.8C96.4744 28.136 99.1384 30.8 102.474 30.8C104.13 30.8 105.594 30.128 106.722 29.048Z" fill="#21269E"/>
  <path d="M29.4375 12.5193C27.3816 10.94 24.8014 10 21.9999 10C19.1984 10 16.6182 10.94 14.5623 12.5193M23.7291 34C26.2107 33.6495 28.4509 32.5556 30.2133 30.953C32.6378 28.7482 34.1578 25.5804 34.1578 22.0605C34.1578 19.3695 33.2693 16.8843 31.7675 14.8778M20.2708 34C17.7892 33.6495 15.549 32.5556 13.7866 30.953C11.3621 28.7482 9.84204 25.5804 9.84204 22.0605C9.84204 19.3695 10.7305 16.8843 12.2324 14.8778" stroke="#343BE5" stroke-width="1.50376" stroke-linecap="round"/>
  <path d="M16.8805 28.4868C18.2956 29.5674 20.0715 30.2105 21.9999 30.2105C23.9282 30.2105 25.7042 29.5674 27.1192 28.4868M20.8097 13.7895C19.1016 14.0293 17.5596 14.7778 16.3465 15.8743C14.6777 17.3829 13.6314 19.5502 13.6314 21.9586C13.6314 23.7999 14.243 25.5003 15.2767 26.8731M23.19 13.7895C24.8982 14.0293 26.4402 14.7778 27.6532 15.8743C29.322 17.3829 30.3683 19.5502 30.3683 21.9586C30.3683 23.7999 29.7567 25.5003 28.723 26.8731" stroke="#343BE5" stroke-width="1.50376" stroke-linecap="round"/>
  <defs>
    <filter id="filter0_d" x="0.0666666" y="0.483333" width="43.8667" height="43.8667" filterUnits="userSpaceOnUse" color-interpolation-filters="sRGB">
      <feFlood flood-opacity="0" result="BackgroundImageFix"/>
      <feColorMatrix in="SourceAlpha" type="matrix" values="0 0 0 0 0 0 0 0 0 0 0 0 0 0 0 0 0 0 127 0"/>
      <feOffset dy="0.416667"/>
      <feGaussianBlur stdDeviation="0.966667"/>
      <feColorMatrix type="matrix" values="0 0 0 0 0 0 0 0 0 0 0 0 0 0 0 0 0 0 0.5 0"/>
      <feBlend mode="normal" in2="BackgroundImageFix" result="effect1_dropShadow"/>
      <feBlend mode="normal" in="SourceGraphic" in2="effect1_dropShadow" result="shape"/>
    </filter>
    <linearGradient id="paint0_linear" x1="22" y1="-3.73171" x2="22" y2="42" gradientUnits="userSpaceOnUse">
      <stop stop-color="white"/>
      <stop offset="1" stop-color="#F4F4F4"/>
    </linearGradient>
  </defs>
</svg>
